<svg xmlns="http://www.w3.org/2000/svg" xmlns:xlink="http://www.w3.org/1999/xlink"><symbol id="contrast" viewBox="0 0 32 31.5">  
  <title>Contrast</title>
  <path d="M15.68,4h0c5.67,0,11.9,3.65,12.24,11.65-.6,8.66-6.41,11.75-11.68,11.75C10.57,27.4,4.35,23.76,4,15.76,4.6,7.09,10.41,4,15.68,4m0-4C8.12,0,.64,5,0,15.7.32,25.91,8.32,31.4,16.24,31.4c7.56,0,15-5,15.68-15.7C31.6,5.5,23.6,0,15.68,0Z"/>
  <path d="M16,24A8.52,8.52,0,1,0,16,7"/>

</symbol><symbol id="crop" viewBox="2 2 44 44">
<path d="M34,30h4V14c0-2.2-1.8-4-4-4H18v4h16V30z M14,34V2h-4v8H2v4h8v20c0,2.2,1.8,4,4,4h20v8h4v-8h8v-4H14z"/>
</symbol><symbol id="fill" viewBox="0 0 48 48">
<style type="text/css">
	.st0{fill:none;}
</style>

<path d="M33.1,17.9L15.2,0l-2.8,2.8l4.8,4.8L6.9,17.9c-1.2,1.2-1.2,3.1,0,4.2l11,11c0.6,0.6,1.4,0.9,2.1,0.9s1.5-0.3,2.1-0.9l11-11
	C34.3,21,34.3,19,33.1,17.9z M10.4,20l9.6-9.6l9.6,9.6H10.4z M38,23c0,0-4,4.3-4,7c0,2.2,1.8,4,4,4s4-1.8,4-4C42,27.3,38,23,38,23z"/>
<rect y="40" width="48" height="3"/>
</symbol></svg>