<svg version="1.1" id="Layer_1" xmlns="http://www.w3.org/2000/svg" x="0" y="0" viewBox="0 0 46.2 56.8" xml:space="preserve"><path d="M38.6 30.1c.1 8.6 7.5 11.4 7.6 11.5-.1.2-1.2 4.1-3.9 8.1-2.4 3.5-4.8 6.9-8.7 7-3.8.1-5-2.3-9.4-2.3-4.3 0-5.7 2.2-9.3 2.3-3.7.1-6.6-3.7-9-7.2-4.9-7-8.6-19.9-3.6-28.6 2.5-4.3 6.9-7 11.7-7.1 3.7-.1 7.1 2.5 9.4 2.5 2.2 0 6.4-3 10.9-2.6 1.9.1 7 .7 10.4 5.6-.2.2-6.2 3.7-6.1 10.8m-7.1-21c2-2.4 3.3-5.7 3-9.1-2.9.1-6.3 1.9-8.4 4.3-1.8 2.1-3.4 5.5-3 8.8 3.1.2 6.4-1.6 8.4-4" fill="#fff"/></svg>