<svg version="1.1" id="Слой_1" xmlns="http://www.w3.org/2000/svg" x="0" y="0" viewBox="0 0 612 792" xml:space="preserve"><style>.st0{fill:#ddd}.st1{fill:#d22a57}</style><path class="st0" d="M267.5 244.3h59.9c.3 2.1 2.4 1.9 3.7 2.5 9.7 4.9 12.1 17.7 6.6 25.7-4 5.9-9.7 8.4-16.8 8.3-6.8-.1-5.9-1.2-6 6.4 0 1.6.8 2.3 2.4 2.6 3.4.5 6.9.9 10.3 1.7 9.9 2.4 19.5 5.5 28.7 10 9.4 4.5 18.2 9.8 26.3 16.4 1 .9 1.6.7 2.5-.1 1.7-1.7 3.5-3.2 5.3-4.9 3.8-3.6 8.3-5.3 13.6-5.1 6.6.2 11.6 5.1 11.8 11.7.1 5.6-1.8 10.3-5.7 14.3l-3.9 3.9c-1.1 1.1-1.2 2.2-.2 3.5 3 4.2 5.9 8.4 8.7 12.7 5.9 8.7 10.1 18.2 13.4 28 3 9 5.5 18.2 6.2 27.8 0 .5.9 1 1.4 1.5v30.5c-1.4.1-1.5 1.1-1.5 2.1 0 1.1 0 2.2-.2 3.2-1.5 6.9-2.9 13.8-4.8 20.5-1.6 5.5-3.6 10.8-5.9 16-1.8 4.1-4.2 7.8-6.3 11.7-4.6 8.6-10.3 16.4-16.9 23.6-8.8 9.6-18.4 18.2-29.6 24.9-6.5 3.9-13.1 7.7-20.2 10.3-6.6 2.4-13.2 4.8-20 6.6-5.2 1.4-10.7 1.9-16.1 2.8-.6.1-1.2.6-1.7 1h-29.9c-.5-.3-.9-.9-1.5-1-6.9-1.3-13.9-2.3-20.7-3.9-8.7-2.1-16.9-5.5-24.8-9.5-10.9-5.5-21.1-12.3-30.1-20.6-8.9-8.2-17.1-17-23.4-27.4-3.8-6.2-7.4-12.5-10.6-19-2.1-4.3-3.5-9.1-5-13.7-2.8-8.3-4.8-16.9-5.7-25.6-.1-.6-.6-1.1-1-1.7v-31c.3-.7.8-1.3 1-2 .2-1.2.1-2.5.4-3.7 1-4.7 2.1-9.3 3.1-14 1.7-7.8 4.4-15.2 7.9-22.4 2.6-5.3 5.5-10.3 8.4-15.4 4.8-8.5 10.9-16 17.6-23 9.7-10 20.5-18.6 32.8-25.1 5.8-3.1 11.8-6 17.9-8.4 8.3-3.2 16.8-5.4 25.6-6.9 5.9-1 5.9-1.1 5.6-7.2v-.2c0-1.3-.6-2-1.9-2-1.4 0-2.8-.1-4.2 0-4.2.2-7.9-1-11.5-3.3-7.6-4.7-9-12.5-7.3-19.8 1.4-5.7 5.3-9.5 10.6-11.8.6-.1 1.1-.9 1.7-1.5zm146.8 181.3c1.3-62.9-52.2-120.5-123.1-117.1-58.6 2.7-113.8 52.6-110.7 123.1 2.6 58.4 52.1 113.8 123 110.8 59.4-2.7 111.4-52.8 110.8-116.8zm-108.5-118v-.2h-16.2v.2h16.2z"/><path class="st1" d="M414.3 425.6c.6 64-51.4 114.2-110.8 116.7-70.9 3.1-120.4-52.4-123-110.8-3.1-70.5 52.1-120.4 110.7-123.1 70.9-3.3 124.3 54.3 123.1 117.2zm-15.2-4c-.4-25.2-11.2-50.4-33-70.5-21.9-20.2-48.1-28.6-77.6-26.4-45.6 3.4-94.2 42.7-92.6 104.9 1.4 52 44.8 99.3 104.4 97.9 53.3-1.3 98.5-45 98.8-105.9z"/><path class="st1" d="M264.7 462.4h-25.2c-1.8 0-2.7-.4-2.5-2.4v-.2c-1.1-6.5 1.3-11.3 6.3-15.8 8.4-7.7 16-16.2 23.8-24.5 3.2-3.4 5.6-7.4 6.2-12.2 1.3-9.5-5.1-12.1-11.7-11.3-5.2.6-9.5 3.3-13.6 6.3-2.2 1.6-2.2 1.6-3.9-.5-2-2.4-3.9-4.8-6-7-1-1.1-1.1-1.8.1-2.8 10.1-8.8 21.8-12 34.8-9.1 11.9 2.6 19.1 12.5 16.9 25-1.2 7.1-4.8 12.9-9.6 17.9-6.5 6.7-13.4 13.1-20.1 19.7-.4.4-.9.8-1.2 1.2-.6.8-.5 1.4.6 1.5.6.1 1.2 0 1.7 0h28.4c2.8 0 2.9.1 2.9 3s-.1 5.8 0 8.7c.1 2.1-.7 2.6-2.6 2.5h-25.3zm83.7-54.3v22c0 2.9.1 3 2.9 3 1.4 0 2.8.1 4.2-.1 1.6-.1 2.4.4 2.3 2 0 3-.1 6 0 9 0 1.7-.7 2.2-2.3 2.1-1.5-.1-3 0-4.5 0-2.7 0-2.7 0-2.7 2.8 0 3.7-.1 7.5 0 11.2.1 1.8-.4 2.5-2.4 2.5-4-.1-8-.1-12 0-1.6 0-2.2-.5-2.2-2.2.1-3.8 0-7.7 0-11.5 0-2.7-.1-2.8-2.8-2.8h-27.7c-3 0-2.8 0-3.1-3-.5-5.8.9-10.8 4.4-15.7 9.9-13.8 19.3-28.1 28.8-42.2 1-1.4 2-2 3.7-1.9 3.6.1 7.2.1 10.7 0 1.9-.1 2.4.7 2.4 2.5.2 7.3.3 14.8.3 22.3zm-16.4-4.5c-.5.7-.8 1-1.1 1.4-1.5 2.5-2.9 5-4.5 7.5-4 6.1-8.1 12.2-12.1 18.3-1.1 1.7-1 2.2.7 2.2 5 .1 10 0 15 0 1.3 0 1.8-.6 1.8-1.8.2-8.6.3-17.1.5-25.7.1-.5-.1-1-.3-1.9z"/><path class="st0" d="M287.9 306.1H306v1.3h-18.1zm5.9-3h18.1v1.3h-18.1z"/></svg>