<?xml version="1.0" encoding="utf-8"?>
<!-- Generator: Adobe Illustrator 23.1.0, SVG Export Plug-In . SVG Version: 6.00 Build 0)  -->
<svg version="1.1" id="Layer_1" xmlns="http://www.w3.org/2000/svg" xmlns:xlink="http://www.w3.org/1999/xlink" x="0px" y="0px"
	 viewBox="0 0 32 32" style="enable-background:new 0 0 32 32;" xml:space="preserve">
<style type="text/css">
	.st0{fill:#231F20;}
</style>
<g>
	<path class="st0" d="M16,4c6.6,0,12,5.4,12,12s-5.4,12-12,12S4,22.6,4,16C4.1,9.4,9.4,4,16,4 M16,0C7.2,0,0,7.1,0,16
		c0,8.8,7.1,16,16,16s16-7.1,16-16C32,7.2,24.9,0,16,0L16,0z"/>
</g>
<path d="M16,24.3c4.7,0,8.5-3.8,8.5-8.5S20.7,7.3,16,7.3"/>
</svg>
