<?xml version="1.0" encoding="utf-8"?>
<!-- Generator: Adobe Illustrator 23.1.0, SVG Export Plug-In . SVG Version: 6.00 Build 0)  -->
<svg version="1.1" id="Layer_1" xmlns="http://www.w3.org/2000/svg" xmlns:xlink="http://www.w3.org/1999/xlink" x="0px" y="0px"
	 viewBox="-35.4 -8 31.9 31.9" style="enable-background:new -35.4 -8 31.9 31.9;" xml:space="preserve">
<style type="text/css">
	.st0{fill:#231F20;}
</style>
<g>
	<path class="st0" d="M-19.5-4c6.6,0,12,5.4,12,12c0,6.6-5.4,12-12,12s-12-5.4-12-12C-31.4,1.4-26.1-4-19.5-4 M-19.5-8
		c-8.8,0-16,7.1-16,16c0,8.8,7.1,16,16,16s16-7.1,16-16C-3.5-0.8-10.6-8-19.5-8L-19.5-8z"/>
</g>
<path d="M-19.5,16.3c4.7,0,8.5-3.8,8.5-8.5c0-4.7-3.8-8.5-8.5-8.5"/>
</svg>
