<?xml version="1.0" encoding="utf-8"?>
<!-- Generator: Adobe Illustrator 23.1.0, SVG Export Plug-In . SVG Version: 6.00 Build 0)  -->
<svg version="1.1" id="Layer_1" xmlns="http://www.w3.org/2000/svg" xmlns:xlink="http://www.w3.org/1999/xlink" x="0px" y="0px"
	 viewBox="0 0 48 48" style="enable-background:new 0 0 48 48;" xml:space="preserve">
<style type="text/css">
	.st0{fill:none;}
</style>
<path class="st0" d="M0,0h48v48H0V0z"/>
<path d="M33.1,17.9L15.2,0l-2.8,2.8l4.8,4.8L6.9,17.9c-1.2,1.2-1.2,3.1,0,4.2l11,11c0.6,0.6,1.4,0.9,2.1,0.9s1.5-0.3,2.1-0.9l11-11
	C34.3,21,34.3,19,33.1,17.9z M10.4,20l9.6-9.6l9.6,9.6H10.4z M38,23c0,0-4,4.3-4,7c0,2.2,1.8,4,4,4s4-1.8,4-4C42,27.3,38,23,38,23z"
	/>
<rect y="40" width="48" height="3"/>
</svg>
