<?xml version="1.0" encoding="utf-8"?>
<!-- Generator: Adobe Illustrator 23.1.0, SVG Export Plug-In . SVG Version: 6.00 Build 0)  -->
<svg version="1.1" id="Layer_1" xmlns="http://www.w3.org/2000/svg" xmlns:xlink="http://www.w3.org/1999/xlink" x="0px" y="0px"
	 viewBox="521.9 473.1 12.5 12" style="enable-background:new 521.9 473.1 12.5 12;" xml:space="preserve">
<g>
	<path d="M528.2,485.1c-0.2,0-0.4-0.1-0.6-0.2c-3.8-4.3-4.6-5.3-4.9-5.6l0,0c-0.5-0.7-0.8-1.5-0.8-2.4c0-2.1,1.7-3.8,3.8-3.8
		c0.9,0,1.8,0.3,2.5,0.9c0.7-0.6,1.6-0.9,2.5-0.9c2.1,0,3.8,1.7,3.8,3.8c0,0.9-0.3,1.8-0.9,2.4l-4.9,5.6
		C528.6,485,528.4,485.1,528.2,485.1L528.2,485.1z M523.9,478.3c0.2,0.3,2.5,2.8,4.2,4.9l4.3-4.9c0.3-0.4,0.5-0.9,0.5-1.4
		c0-1.3-1-2.3-2.3-2.3c-0.7,0-1.4,0.3-1.9,0.9c-0.1,0.2-0.4,0.3-0.6,0.3c-0.2,0-0.4-0.1-0.6-0.3c-0.4-0.6-1.1-0.9-1.9-0.9
		c-1.3,0-2.3,1-2.3,2.3C523.4,477.5,523.7,478,523.9,478.3C523.9,478.3,523.9,478.3,523.9,478.3z" fill="#d22856"/>
</g>
</svg>
