<svg version="1.1" id="Layer_1" xmlns="http://www.w3.org/2000/svg" x="0" y="0" viewBox="0 0 42.1 47" xml:space="preserve"><style>.st0{fill:#a4c639}</style><path class="st0" d="M34.1 14H7.9v19.1c0 1.9 1.5 3.5 3.3 3.6v7.4c0 1.6 1.3 2.9 2.9 2.9 1.6 0 2.9-1.3 2.9-2.9v-7.4h8.1v7.4c0 1.6 1.3 2.9 2.9 2.9 1.6 0 2.9-1.3 2.9-2.9v-7.4c1.9-.1 3.3-1.7 3.3-3.6V14.3c0-.1 0-.2-.1-.3z"/><path id="c-4-9-2-9-2-9" class="st0" d="M2.9 15.7c1.6 0 2.9 1.3 2.9 2.9V31c0 1.6-1.3 2.9-2.9 2.9C1.3 33.9 0 32.6 0 31V18.6c0-1.6 1.3-2.9 2.9-2.9z"/><path id="c-4-1-7-3-8-4" class="st0" d="M39.2 15.7c1.6 0 2.9 1.3 2.9 2.9V31c0 1.6-1.3 2.9-2.9 2.9-1.6 0-2.9-1.3-2.9-2.9V18.6c0-1.6 1.3-2.9 2.9-2.9z"/><path class="st0" d="M8 12h26c0-2.8-1.2-5.3-3.2-7.3L33.2.5c.1-.1 0-.3-.1-.4-.1-.1-.3 0-.4.1l-2.4 4.1C28.2 2.4 24.1.9 20.9.9c-3 0-7.3 1.5-9.4 3.4L9.3.2C9.2 0 9 0 8.9 0c-.2.1-.2.3-.1.5l2.4 4.2C9.3 6.6 8.1 9.2 8 12zm17.3-5.2c0-.8.7-1.5 1.5-1.5s1.5.6 1.5 1.5c0 .8-.7 1.5-1.5 1.5s-1.5-.7-1.5-1.5zm-11.1 0c0-.8.7-1.5 1.5-1.5s1.5.6 1.5 1.5c0 .8-.7 1.5-1.5 1.5s-1.5-.7-1.5-1.5z"/></svg>