<?xml version="1.0" encoding="UTF-8" standalone="no"?>
<svg
   xmlns:dc="http://purl.org/dc/elements/1.1/"
   xmlns:cc="http://creativecommons.org/ns#"
   xmlns:rdf="http://www.w3.org/1999/02/22-rdf-syntax-ns#"
   xmlns:svg="http://www.w3.org/2000/svg"
   xmlns="http://www.w3.org/2000/svg"
   xmlns:xlink="http://www.w3.org/1999/xlink"
   xmlns:sodipodi="http://sodipodi.sourceforge.net/DTD/sodipodi-0.dtd"
   xmlns:inkscape="http://www.inkscape.org/namespaces/inkscape"
   inkscape:version="1.0 (4035a4fb49, 2020-05-01)"
   sodipodi:docname="mail.svg"
   xml:space="preserve"
   style="enable-background:new 0 0 45 45"
   viewBox="0 0 45 45"
   y="0px"
   x="0px"
   id="Layer_1"
   version="1.1"><metadata
   id="metadata16"><rdf:RDF><cc:Work
       rdf:about=""><dc:format>image/svg+xml</dc:format><dc:type
         rdf:resource="http://purl.org/dc/dcmitype/StillImage" /><dc:title></dc:title></cc:Work></rdf:RDF></metadata><defs
   id="defs14" /><sodipodi:namedview
   inkscape:current-layer="Layer_1"
   inkscape:window-maximized="1"
   inkscape:window-y="-8"
   inkscape:window-x="-8"
   inkscape:cy="17.353509"
   inkscape:cx="16.433334"
   inkscape:zoom="13.325034"
   showgrid="false"
   id="namedview12"
   inkscape:window-height="1016"
   inkscape:window-width="1920"
   inkscape:pageshadow="2"
   inkscape:pageopacity="0"
   guidetolerance="10"
   gridtolerance="10"
   objecttolerance="10"
   borderopacity="1"
   bordercolor="#666666"
   pagecolor="#ffffff" />
  <path
   id="path2"
   d="M0.000,0.000 L45.000,0.000 L45.000,45.000 L0.000,45.000 L0.000,0.000 Z"
   fill="rgb(229, 229, 229)"
   fill-rule="evenodd" />
  <symbol
   viewbox="-60 -60 135 135"
   id="mail">
    <path
   id="path4"
   fill="#d22856"
   d="M14.9,1.8c1.2-1,0.9-1.8-0.7-1.8H3.7C2.2,0,1.9,0.8,3.1,1.8l3.7,3.1c1.2,1,3.2,1,4.4,0L14.9,1.8z" />
    <path
   id="path6"
   fill="#d22856"
   d="M11.9,7c-1.2,1-2.2,1.8-2.2,1.8c0,0,0,0,0,0C9.6,8.9,9.5,9,9.4,9c0,0-0.1,0-0.1,0C9.2,9.1,9.1,9.1,9,9.1     c0,0,0,0,0,0c0,0,0,0,0,0c0,0,0,0,0,0c0,0,0,0,0,0c-0.1,0-0.2,0-0.3-0.1c0,0-0.1,0-0.1,0C8.5,9,8.4,8.9,8.3,8.9c0,0,0,0,0,0     c0,0-1-0.8-2.2-1.8L2.2,3.8C1,2.8,0,3.3,0,4.8v6.3C0,12.7,1.3,14,2.8,14h12.3c1.6,0,2.8-1.3,2.8-2.8V4.8c0-1.6-1-2-2.2-1L11.9,7z     " />
  </symbol>
  <use
   height="100%"
   width="100%"
   y="0"
   x="0"
   transform="translate(13.319575,15.283019)"
   id="use9"
   xlink:href="#mail" />
</svg>
