<?xml version="1.0" encoding="utf-8"?>
<!-- Generator: Adobe Illustrator 23.1.0, SVG Export Plug-In . SVG Version: 6.00 Build 0)  -->
<svg version="1.1" id="Layer_1" xmlns="http://www.w3.org/2000/svg" xmlns:xlink="http://www.w3.org/1999/xlink" x="0px" y="0px"
	 viewBox="0 0 19.7 19.7" style="enable-background:new 0 0 19.7 19.7;" xml:space="preserve">
<style type="text/css">
	.st0{fill:#FFFFFF;}
</style>
<path class="st0" d="M9.8,0c-3.5,0-7,0.6-8.3,1.9c-1.1,1-1.4,2.9-1.5,4c0,0,0,0.1,0,0.2c0,0.5,0.4,0.8,0.8,0.8c0.1,0,2-0.2,3.2-0.3
	c0,0,0.1,0,0.1,0c0.4,0,0.8-0.4,0.8-0.8l0-1.6c0-0.5,0.4-0.9,0.9-0.9h8c0.5,0,0.9,0.4,0.9,0.9l0,1.6c0,0.4,0.4,0.8,0.8,0.8
	c0,0,0.1,0,0.1,0c1.2,0.1,3.2,0.3,3.2,0.3c0.5,0,0.8-0.4,0.8-0.8c0-0.1,0-0.2,0-0.2c-0.1-1.2-0.5-3-1.5-4C16.9,0.6,13.4,0,9.8,0z
	 M9.8,10.7c-0.9,0-1.6,0.7-1.6,1.6S8.9,14,9.8,14c0.9,0,1.6-0.7,1.6-1.6C11.5,11.4,10.8,10.7,9.8,10.7z M8.6,7V6c0-0.6-0.5-1-1-1
	s-1,0.5-1,1v1L1,12.9c-0.4,0.4-0.6,0.9-0.6,1.5V16c0,0.9,0.7,1.6,1.6,1.6h0.4v1c0,0.6,0.5,1,1,1c0.6,0,1-0.5,1-1v-1h10.7v1
	c0,0.6,0.5,1,1,1c0.6,0,1-0.5,1-1v-1h0.4c0.9,0,1.6-0.7,1.6-1.6v-1.6c0-0.6-0.2-1.1-0.6-1.5L13.1,7V6c0-0.6-0.5-1-1-1
	c-0.6,0-1,0.5-1,1v1H8.6z M9.8,9c1.8,0,3.3,1.5,3.3,3.3c0,1.8-1.5,3.3-3.3,3.3c-1.8,0-3.3-1.5-3.3-3.3C6.6,10.5,8,9,9.8,9z"/>
</svg>
