<svg xmlns="http://www.w3.org/2000/svg" xmlns:xlink="http://www.w3.org/1999/xlink">

<symbol id="facebook" viewBox="0 0 8.7 18.9">
  <path d="M6.3 3.4h2.4V0H5.8C2.7.2 1.5 2.4 1.9 6.1H0v3.5h2v9.3h3.8V9.6h2.9V6.1H5.8c0-1 0-2.4.5-2.7z"/>
</symbol>

<symbol id="htmlAcademy" x="0px" y="0px" viewBox="0 0 154.4 195.3">
  <path d="M78,0.6l-0.8-0.1l-76.7,8v140.6l76.7,45.6l76.7-45.6V8.5L78,0.6z M143.9,143.4L77.2,183l-66.7-39.7V85.7
	l66.4,39.5l0.1,7.2l-45.5-27.1l-0.1,7l45.7,27.5l0.1,7.3l-45.7-27.2l-0.1,7l45.7,27.5l46.2-27.6v-7h-0.1V97l20.6-12.3L143.9,143.4
	L143.9,143.4z M143.8,77.3L125.6,88l-8.4,5L77.1,69.1l-0.1,7l34.3,20.4l-0.3,0.2l-0.7,0.4l-4.9,2.9L77.1,83.1l-0.1,7l22.4,13.3
	l-5.3,3.5L94,107L77.1,97l-0.1,7l11.1,6.5l-11.3,6.8L10.8,78l66.1-39.8l0,0L143.8,77.3L143.8,77.3z M143.9,70.3l-67-39.5l0,0l0,0
	l0,0L10.6,70.3V17.6l66.7-7l66.7,7v52.7L143.9,70.3z"
stroke-miterlimit="10"/>
</symbol>

<symbol id="logoFooterDesktop" viewBox="0 0 146.3 40.4">
  <g>
  	<path d="M71.9,18.7c0-0.7,0.6-1.3,1.3-1.3h7.2c5.1,0,8.4,2.7,8.4,7.1v0.1c0,4.9-4.1,7.4-8.9,7.4h-5.5v6.8
		c0,0.7-0.6,1.3-1.3,1.3c-0.7,0-1.3-0.6-1.3-1.3L71.9,18.7L71.9,18.7z M80,29.6c3.7,0,6.2-2,6.2-5v-0.1c0-3.2-2.4-4.9-6.1-4.9h-5.7
		v9.9L80,29.6L80,29.6z"/>
  	<path d="M93.6,18.5c0-0.7,0.6-1.3,1.3-1.3c0.7,0,1.3,0.6,1.3,1.3v20.3c0,0.7-0.6,1.3-1.3,1.3c-0.7,0-1.3-0.6-1.3-1.3
		V18.5z"/>
  	<path d="M102.7,18.5c0-0.7,0.6-1.3,1.3-1.3h0.4c0.6,0,0.9,0.3,1.3,0.7l13.7,17.4v-17c0-0.7,0.5-1.3,1.3-1.3
		c0.7,0,1.2,0.6,1.2,1.3v20.3c0,0.7-0.5,1.2-1.2,1.2h-0.1c-0.5,0-0.9-0.3-1.3-0.8l-14-17.9v17.4c0,0.7-0.5,1.3-1.3,1.3
		c-0.7,0-1.2-0.6-1.2-1.3L102.7,18.5L102.7,18.5z"/>
  	<path d="M128.2,18.5c0-0.7,0.6-1.3,1.3-1.3c0.7,0,1.3,0.6,1.3,1.3v12.3l12.8-13.2c0.3-0.3,0.6-0.5,1-0.5
		c0.7,0,1.2,0.6,1.2,1.3c0,0.4-0.2,0.6-0.4,0.9l-8,7.9l8.6,10.6c0.2,0.3,0.4,0.5,0.4,0.9c0,0.7-0.6,1.3-1.3,1.3
		c-0.5,0-0.8-0.3-1-0.6L135.6,29l-4.9,4.9v4.9c0,0.7-0.6,1.3-1.3,1.3c-0.7,0-1.3-0.6-1.3-1.3L128.2,18.5L128.2,18.5z"/>
  </g>
  <path d="M98.5,9.9c-2,0-3.6-1.6-3.6-3.6c0,2-1.6,3.6-3.6,3.6c2,0,3.6,1.6,3.6,3.6C94.9,11.5,96.5,9.9,98.5,9.9z" fill="#D22856"/>
  <g>
	<path  d="M43.1,19.3c0.2,0,0.5,0,0.7,0c-0.4-0.7-1.2-1.2-2.1-1.2c-0.9,0-1.6-0.6-1.9-1.4c-0.7,0.2-1.4,0.5-2.1,0.8
		c0.1,0,0.1,0,0.2,0c1.1,0,2,0.9,2,2c0,0.1,0,0.2,0,0.3C40.9,19.5,42,19.3,43.1,19.3z" fill="#D22856"/>
	<path  d="M60.5,28c0,0-5.2-21.4-5.2-21.4C54.9,4.3,52.7,0,46.7,0c-0.8,0-1.5,0.7-1.5,1.5S45.9,3,46.7,3
		c4.9,0,5.6,3.7,5.6,4.1l4.8,19.7H55c-0.4-3.6-2.5-6.6-5.3-8.5c-0.9,0.4-1.5,1.3-1.5,2.3c0,0.1,0,0.2,0,0.3c2,1.4,3.4,3.5,3.8,6
		c0.1,0.5,0.1,1,0.1,1.5c0,0.5-0.1,1-0.1,1.5c-0.7,4.3-4.4,7.5-8.9,7.5c-4.5,0-8.2-3.3-8.9-7.5c-0.1-0.5-0.1-1-0.1-1.5
		c0-0.5,0.1-1,0.1-1.5c0.1-0.9,0.4-1.7,0.8-2.5c-1-0.1-1.9-0.9-1.9-2c0-0.2-0.1-0.4-0.2-0.5c-0.9,1.5-1.6,3.1-1.8,5h-1.8
		c-0.7-5.9-5.8-10.5-11.9-10.5S6.2,20.9,5.5,26.8H3.4L8.2,7.1C8.3,6.7,9,3,13.8,3c0.8,0,1.5-0.7,1.5-1.5S14.7,0,13.8,0
		c-6,0-8.2,4.3-8.6,6.7c0,0-5.2,21.4-5.2,21.4c-0.3,1.1,0.5,1.8,1.4,1.8c0,0,0,0,0,0h4c0.1,0.6,0.2,1.2,0.4,1.8
		C5.9,31.6,6,31.5,6,31.3c0-1.1,0.9-2,2-2c0.2,0,0.3,0,0.5,0.1c0-0.3-0.1-0.7-0.1-1c0-0.5,0.1-1,0.1-1.5c0.7-4.3,4.4-7.5,8.9-7.5
		s8.2,3.3,8.9,7.5c0.1,0.5,0.1,1,0.1,1.5c0,0.5-0.1,1-0.1,1.5c-0.7,4.3-4.4,7.5-8.9,7.5c-2,0-3.9-0.7-5.4-1.8
		c-0.4,0.3-0.8,0.5-1.3,0.5c-0.4,0-0.7,0.3-0.7,0.7c0,0.3-0.1,0.6-0.2,0.8c2.1,1.7,4.7,2.7,7.6,2.7c6.1,0,11.2-4.6,11.9-10.5h1.8
		c0.7,5.9,5.8,10.5,11.9,10.5S54.3,35.8,55,29.8h4c0,0,0,0,0,0C59.9,29.8,60.7,29.1,60.5,28z" fill="#D22856"/>
</g>
<g>
	<g>
		<path d="M50.7,16.1c-2.5,0-4.5-2-4.5-4.5c0,2.5-2,4.5-4.5,4.5c2.5,0,4.5,2,4.5,4.5C46.2,18.1,48.2,16.1,50.7,16.1z"/>
	</g>
</g>
<g>
	<g>
		<path d="M37.9,19.6c-1.5,0-2.7-1.2-2.7-2.7c0,1.5-1.2,2.7-2.7,2.7c1.5,0,2.7,1.2,2.7,2.7
			C35.2,20.9,36.4,19.6,37.9,19.6z"/>
	</g>
</g>
<g>
	<g>
		<path d="M10.7,34.1c-1.5,0-2.7-1.2-2.7-2.8c0,1.5-1.2,2.8-2.7,2.8c1.5,0,2.7,1.2,2.7,2.7C8,35.3,9.2,34.1,10.7,34.1z"/>
	</g>
</g>
</symbol>

<symbol id="logoFooterTablet" viewBox="0 0 146.3 40.4">
<g>
	<path d="M71.9,18.7c0-0.7,0.6-1.3,1.3-1.3h7.2c5.1,0,8.4,2.7,8.4,7.1v0.1c0,4.9-4.1,7.4-8.9,7.4h-5.5v6.8
		c0,0.7-0.6,1.3-1.3,1.3c-0.7,0-1.3-0.6-1.3-1.3L71.9,18.7L71.9,18.7z M80,29.6c3.7,0,6.2-2,6.2-5v-0.1c0-3.2-2.4-4.9-6.1-4.9h-5.7
		v9.9L80,29.6L80,29.6z"/>
	<path d="M93.6,18.5c0-0.7,0.6-1.3,1.3-1.3c0.7,0,1.3,0.6,1.3,1.3v20.3c0,0.7-0.6,1.3-1.3,1.3c-0.7,0-1.3-0.6-1.3-1.3
		V18.5z"/>
	<path d="M102.7,18.5c0-0.7,0.6-1.3,1.3-1.3h0.4c0.6,0,0.9,0.3,1.3,0.7l13.7,17.4v-17c0-0.7,0.5-1.3,1.3-1.3
		c0.7,0,1.2,0.6,1.2,1.3v20.3c0,0.7-0.5,1.2-1.2,1.2h-0.1c-0.5,0-0.9-0.3-1.3-0.8l-14-17.9v17.4c0,0.7-0.5,1.3-1.3,1.3
		c-0.7,0-1.2-0.6-1.2-1.3L102.7,18.5L102.7,18.5z"/>
	<path d="M128.2,18.5c0-0.7,0.6-1.3,1.3-1.3c0.7,0,1.3,0.6,1.3,1.3v12.3l12.8-13.2c0.3-0.3,0.6-0.5,1-0.5
		c0.7,0,1.2,0.6,1.2,1.3c0,0.4-0.2,0.6-0.4,0.9l-8,7.9l8.6,10.6c0.2,0.3,0.4,0.5,0.4,0.9c0,0.7-0.6,1.3-1.3,1.3
		c-0.5,0-0.8-0.3-1-0.6L135.6,29l-4.9,4.9v4.9c0,0.7-0.6,1.3-1.3,1.3c-0.7,0-1.3-0.6-1.3-1.3L128.2,18.5L128.2,18.5z"/>
</g>
<path  d="M60.5,28.3"/>
<path d="M60.5,28c0,0-5.2-21.4-5.2-21.4C54.9,4.3,52.7,0,46.7,0c-0.8,0-1.5,0.7-1.5,1.5S45.9,3,46.7,3
	c4.9,0,5.6,3.7,5.6,4.1l4.8,19.7H55c-0.7-5.9-5.8-10.5-11.9-10.5s-11.2,4.6-11.9,10.5h-1.8c-0.7-5.9-5.8-10.5-11.9-10.5
	S6.2,20.9,5.5,26.8H3.4L8.2,7.1C8.3,6.7,9,3,13.8,3c0.8,0,1.5-0.7,1.5-1.5S14.7,0,13.8,0c-6,0-8.2,4.3-8.6,6.7
	c0,0-5.2,21.4-5.2,21.4c-0.3,1.1,0.5,1.8,1.4,1.8c0,0,0,0,0,0h4c0.7,5.9,5.8,10.5,11.9,10.5s11.2-4.6,11.9-10.5h1.8
	c0.7,5.9,5.8,10.5,11.9,10.5S54.3,35.8,55,29.8h4c0,0,0,0,0,0C59.9,29.8,60.7,29.1,60.5,28z M26.3,29.8c-0.7,4.3-4.4,7.5-8.9,7.5
	s-8.2-3.3-8.9-7.5c-0.1-0.5-0.1-1-0.1-1.5c0-0.5,0.1-1,0.1-1.5c0.7-4.3,4.4-7.5,8.9-7.5s8.2,3.3,8.9,7.5c0.1,0.5,0.1,1,0.1,1.5
	C26.5,28.9,26.4,29.4,26.3,29.8z M52,29.8c-0.7,4.3-4.4,7.5-8.9,7.5c-4.5,0-8.2-3.3-8.9-7.5c-0.1-0.5-0.1-1-0.1-1.5
	c0-0.5,0.1-1,0.1-1.5c0.7-4.3,4.4-7.5,8.9-7.5c4.5,0,8.2,3.3,8.9,7.5c0.1,0.5,0.1,1,0.1,1.5C52.1,28.9,52.1,29.4,52,29.8z" fill="#D22856"/>
</symbol>

<symbol id="twitter" viewBox="0 0 17.5 14.7"><path d="M11.3.2C13-.3 14.4.4 15 1.3c.7-.2 1.4-.5 2.1-.7 0 .8-.5 1.5-.9 1.7.7.2 1.3-.5 1.3-.5-.2 1-1 1.7-1.6 2-.2 6.6-3.3 11-10.4 10.8H5c-.4 0-4.3-.4-5-1.8 2.3.2 4-.4 4.8-1.1-1-.3-2.8-.5-3.1-2.9.4.1.6.2 1.3.1C1.8 8.1.4 7.4.5 5.2c.3.3 1.1.5 1.4.5-.7-.2-2-3.3-.9-4.8 1.9 1.8 3.8 3.5 7.4 3.7C8.5 2.3 9.5.8 11.3.2z" id="W6EeEF_1_"/></symbol>

<symbol id="youtube" viewBox="0 0 14.6 14"><path d="M1.8 13.8c-1 .5-1.8 0-1.8-1.1V1.3C0 .2.8-.3 1.8.2l12.1 5.9c1 .5 1 1.3 0 1.7l-12.1 6z"/></symbol></svg>
