<svg version="1.1" id="Layer_1" xmlns="http://www.w3.org/2000/svg" x="0" y="0" viewBox="521.9 473.1 12.5 12" xml:space="preserve"><path d="M528.2 485.1c-.2 0-.4-.1-.6-.2-3.8-4.3-4.6-5.3-4.9-5.6-.5-.7-.8-1.5-.8-2.4 0-2.1 1.7-3.8 3.8-3.8.9 0 1.8.3 2.5.9.7-.6 1.6-.9 2.5-.9 2.1 0 3.8 1.7 3.8 3.8 0 .9-.3 1.8-.9 2.4l-4.9 5.6c-.1.1-.3.2-.5.2zm-4.3-6.8c.2.3 2.5 2.8 4.2 4.9l4.3-4.9c.3-.4.5-.9.5-1.4 0-1.3-1-2.3-2.3-2.3-.7 0-1.4.3-1.9.9-.1.2-.4.3-.6.3-.2 0-.4-.1-.6-.3-.4-.6-1.1-.9-1.9-.9-1.3 0-2.3 1-2.3 2.3.1.6.4 1.1.6 1.4z"/></svg>