<svg xmlns="http://www.w3.org/2000/svg" xmlns:xlink="http://www.w3.org/1999/xlink" xml:space="preserve" viewBox="0 0 45 45" y="0" x="0" id="Layer_1" version="1.1"><path id="path2" d="M0 0h45v45H0V0z" fill="#E5E5E5" fill-rule="evenodd"/><symbol id="mail"><path id="path4" fill="#d22856" d="M14.9 1.8c1.2-1 .9-1.8-.7-1.8H3.7c-1.5 0-1.8.8-.6 1.8l3.7 3.1c1.2 1 3.2 1 4.4 0l3.7-3.1z"/><path id="path6" fill="#d22856" d="M11.9 7c-1.2 1-2.2 1.8-2.2 1.8-.1.1-.2.2-.3.2h-.1c-.1.1-.2.1-.3.1-.1 0-.2 0-.3-.1h-.1c-.1 0-.2-.1-.3-.1 0 0-1-.8-2.2-1.8L2.2 3.8C1 2.8 0 3.3 0 4.8v6.3C0 12.7 1.3 14 2.8 14h12.3c1.6 0 2.8-1.3 2.8-2.8V4.8c0-1.6-1-2-2.2-1L11.9 7z"/></symbol><use height="100%" width="100%" y="0" x="0" transform="translate(13.32 15.283)" id="use9" xlink:href="#mail"/></svg>