<svg version="1.1" id="Layer_1" xmlns="http://www.w3.org/2000/svg" xmlns:xlink="http://www.w3.org/1999/xlink" x="0" y="0" viewBox="0 0 20 20" xml:space="preserve"><path fill-rule="evenodd" fill="#E5E5E5" d="M0 0h20v20H0V0z"/><symbol id="phone" viewBox="-20 -20 60 60"><path class="st0" d="M9.8 0c-3.5 0-7 .6-8.3 1.9C.4 2.9.1 4.8 0 5.9v.2c0 .5.4.8.8.8.1 0 2-.2 3.2-.3h.1c.4 0 .8-.4.8-.8V4.2c0-.5.4-.9.9-.9h8c.5 0 .9.4.9.9v1.6c0 .4.4.8.8.8h.1c1.2.1 3.2.3 3.2.3.5 0 .8-.4.8-.8v-.2c-.1-1.2-.5-3-1.5-4C16.9.6 13.4 0 9.8 0zm0 10.7c-.9 0-1.6.7-1.6 1.6S8.9 14 9.8 14c.9 0 1.6-.7 1.6-1.6.1-1-.6-1.7-1.6-1.7zM8.6 7V6c0-.6-.5-1-1-1s-1 .5-1 1v1L1 12.9c-.4.4-.6.9-.6 1.5V16c0 .9.7 1.6 1.6 1.6h.4v1c0 .6.5 1 1 1 .6 0 1-.5 1-1v-1h10.7v1c0 .6.5 1 1 1 .6 0 1-.5 1-1v-1h.4c.9 0 1.6-.7 1.6-1.6v-1.6c0-.6-.2-1.1-.6-1.5L13.1 7V6c0-.6-.5-1-1-1-.6 0-1 .5-1 1v1H8.6zm1.2 2c1.8 0 3.3 1.5 3.3 3.3 0 1.8-1.5 3.3-3.3 3.3-1.8 0-3.3-1.5-3.3-3.3C6.6 10.5 8 9 9.8 9z" fill="#d22856"/></symbol><use xlink:href="#phone"/></svg>