<svg xmlns="http://www.w3.org/2000/svg"><symbol id="close" viewBox="0 0 24 24"><path d="M15.1 11.9l8.6-8.6c.3-.3.3-.8 0-1.1L21.6.1c-.2 0-.4-.1-.6-.1-.2 0-.4.1-.5.2l-8.6 8.6L3.4.2c-.3-.3-.8-.3-1.1 0L.2 2.3c-.3.3-.3.8 0 1.1L8.8 12 .2 20.6c-.3.3-.3.8 0 1.1l2.1 2.1c.1.1.3.2.5.2s.4-.1.5-.2l8.6-8.6 8.6 8.6c.1.1.3.2.5.2s.4-.1.5-.2l2.1-2.1c.3-.3.3-.8 0-1.1l-8.5-8.7z"/></symbol><symbol id="open" viewBox="0 0 50 24"><g id="miu"><g id="editor_list_view_hambuger_menu_glyph"><path id="path-1" class="st0" d="M1.1 0C.5 0 0 .4 0 1v2c0 .6.5 1 1.1 1h47.7c.6 0 1.1-.4 1.1-1V1c0-.6-.5-1-1.1-1H1.1zm0 10c-.6 0-1.1.4-1.1 1v2c0 .6.5 1 1.1 1h47.7c.6 0 1.1-.4 1.1-1v-2c0-.6-.5-1-1.1-1H1.1zm0 10c-.6 0-1.1.4-1.1 1v2c0 .6.5 1 1.1 1h47.7c.6 0 1.1-.4 1.1-1v-2c0-.6-.5-1-1.1-1H1.1z"/><path id="path-1_1_" class="st0" d="M1.1 0C.5 0 0 .4 0 1v2c0 .6.5 1 1.1 1h47.7c.6 0 1.1-.4 1.1-1V1c0-.6-.5-1-1.1-1H1.1zm0 10c-.6 0-1.1.4-1.1 1v2c0 .6.5 1 1.1 1h47.7c.6 0 1.1-.4 1.1-1v-2c0-.6-.5-1-1.1-1H1.1zm0 10c-.6 0-1.1.4-1.1 1v2c0 .6.5 1 1.1 1h47.7c.6 0 1.1-.4 1.1-1v-2c0-.6-.5-1-1.1-1H1.1z"/></g></g></symbol></svg>