<svg xmlns="http://www.w3.org/2000/svg"><symbol id="contrast" viewBox="0 0 32 31.5"><path d="M15.68 4c5.67 0 11.9 3.65 12.24 11.65-.6 8.66-6.41 11.75-11.68 11.75-5.67 0-11.89-3.64-12.24-11.64C4.6 7.09 10.41 4 15.68 4m0-4C8.12 0 .64 5 0 15.7c.32 10.21 8.32 15.7 16.24 15.7 7.56 0 15-5 15.68-15.7C31.6 5.5 23.6 0 15.68 0zM16 24a8.52 8.52 0 100-17"/></symbol><symbol id="crop" viewBox="2 2 44 44"><path d="M34 30h4V14c0-2.2-1.8-4-4-4H18v4h16v16zm-20 4V2h-4v8H2v4h8v20c0 2.2 1.8 4 4 4h20v8h4v-8h8v-4H14z"/></symbol><symbol id="fill" viewBox="0 0 48 48"><style/><path d="M33.1 17.9L15.2 0l-2.8 2.8 4.8 4.8L6.9 17.9c-1.2 1.2-1.2 3.1 0 4.2l11 11c.6.6 1.4.9 2.1.9s1.5-.3 2.1-.9l11-11c1.2-1.1 1.2-3.1 0-4.2zM10.4 20l9.6-9.6 9.6 9.6H10.4zM38 23s-4 4.3-4 7c0 2.2 1.8 4 4 4s4-1.8 4-4c0-2.7-4-7-4-7zM0 40h48v3H0z"/></symbol></svg>