<svg xmlns="http://www.w3.org/2000/svg"><symbol id="facebook" viewBox="0 0 8.7 18.9"><path d="M6.3 3.4h2.4V0H5.8C2.7.2 1.5 2.4 1.9 6.1H0v3.5h2v9.3h3.8V9.6h2.9V6.1H5.8c0-1 0-2.4.5-2.7z"/></symbol><symbol id="htmlAcademy" viewBox="0 0 154.4 195.3"><path d="M78 .6l-.8-.1-76.7 8v140.6l76.7 45.6 76.7-45.6V8.5L78 .6zm65.9 142.8L77.2 183l-66.7-39.7V85.7l66.4 39.5.1 7.2-45.5-27.1-.1 7 45.7 27.5.1 7.3-45.7-27.2-.1 7 45.7 27.5 46.2-27.6v-7h-.1V97l20.6-12.3.1 58.7zm-.1-66.1L125.6 88l-8.4 5-40.1-23.9-.1 7 34.3 20.4-.3.2-.7.4-4.9 2.9-28.3-16.9-.1 7 22.4 13.3-5.3 3.5-.1.1-16.9-10-.1 7 11.1 6.5-11.3 6.8-66-39.3 66.1-39.8 66.9 39.1zm.1-7l-67-39.5-66.3 39.5V17.6l66.7-7 66.7 7v52.7h-.1z" stroke-miterlimit="10"/></symbol><symbol id="logoFooterDesktop" viewBox="0 0 146.3 40.4"><path d="M71.9 18.7c0-.7.6-1.3 1.3-1.3h7.2c5.1 0 8.4 2.7 8.4 7.1v.1c0 4.9-4.1 7.4-8.9 7.4h-5.5v6.8c0 .7-.6 1.3-1.3 1.3-.7 0-1.3-.6-1.3-1.3l.1-20.1zM80 29.6c3.7 0 6.2-2 6.2-5v-.1c0-3.2-2.4-4.9-6.1-4.9h-5.7v9.9l5.6.1zm13.6-11.1c0-.7.6-1.3 1.3-1.3.7 0 1.3.6 1.3 1.3v20.3c0 .7-.6 1.3-1.3 1.3-.7 0-1.3-.6-1.3-1.3V18.5zm9.1 0c0-.7.6-1.3 1.3-1.3h.4c.6 0 .9.3 1.3.7l13.7 17.4v-17c0-.7.5-1.3 1.3-1.3.7 0 1.2.6 1.2 1.3v20.3c0 .7-.5 1.2-1.2 1.2h-.1c-.5 0-.9-.3-1.3-.8l-14-17.9v17.4c0 .7-.5 1.3-1.3 1.3-.7 0-1.2-.6-1.2-1.3l-.1-20zm25.5 0c0-.7.6-1.3 1.3-1.3.7 0 1.3.6 1.3 1.3v12.3l12.8-13.2c.3-.3.6-.5 1-.5.7 0 1.2.6 1.2 1.3 0 .4-.2.6-.4.9l-8 7.9 8.6 10.6c.2.3.4.5.4.9 0 .7-.6 1.3-1.3 1.3-.5 0-.8-.3-1-.6L135.6 29l-4.9 4.9v4.9c0 .7-.6 1.3-1.3 1.3-.7 0-1.3-.6-1.3-1.3l.1-20.3z"/><path d="M98.5 9.9c-2 0-3.6-1.6-3.6-3.6 0 2-1.6 3.6-3.6 3.6 2 0 3.6 1.6 3.6 3.6 0-2 1.6-3.6 3.6-3.6z" fill="#D22856"/><g fill="#D22856"><path d="M43.1 19.3h.7c-.4-.7-1.2-1.2-2.1-1.2-.9 0-1.6-.6-1.9-1.4-.7.2-1.4.5-2.1.8h.2c1.1 0 2 .9 2 2v.3c1-.3 2.1-.5 3.2-.5z"/><path d="M60.5 28L55.3 6.6C54.9 4.3 52.7 0 46.7 0c-.8 0-1.5.7-1.5 1.5S45.9 3 46.7 3c4.9 0 5.6 3.7 5.6 4.1l4.8 19.7H55c-.4-3.6-2.5-6.6-5.3-8.5-.9.4-1.5 1.3-1.5 2.3v.3c2 1.4 3.4 3.5 3.8 6 .1.5.1 1 .1 1.5s-.1 1-.1 1.5c-.7 4.3-4.4 7.5-8.9 7.5s-8.2-3.3-8.9-7.5c-.1-.5-.1-1-.1-1.5s.1-1 .1-1.5c.1-.9.4-1.7.8-2.5-1-.1-1.9-.9-1.9-2 0-.2-.1-.4-.2-.5-.9 1.5-1.6 3.1-1.8 5h-1.8c-.7-5.9-5.8-10.5-11.9-10.5S6.2 20.9 5.5 26.8H3.4L8.2 7.1C8.3 6.7 9 3 13.8 3c.8 0 1.5-.7 1.5-1.5S14.7 0 13.8 0c-6 0-8.2 4.3-8.6 6.7L0 28.1c-.3 1.1.5 1.8 1.4 1.8h4c.1.6.2 1.2.4 1.8.1-.1.2-.2.2-.4 0-1.1.9-2 2-2 .2 0 .3 0 .5.1 0-.3-.1-.7-.1-1 0-.5.1-1 .1-1.5.7-4.3 4.4-7.5 8.9-7.5s8.2 3.3 8.9 7.5c.1.5.1 1 .1 1.5s-.1 1-.1 1.5c-.7 4.3-4.4 7.5-8.9 7.5-2 0-3.9-.7-5.4-1.8-.4.3-.8.5-1.3.5-.4 0-.7.3-.7.7 0 .3-.1.6-.2.8 2.1 1.7 4.7 2.7 7.6 2.7 6.1 0 11.2-4.6 11.9-10.5h1.8c.7 5.9 5.8 10.5 11.9 10.5s11.3-4.5 12-10.5h4c.9 0 1.7-.7 1.5-1.8z"/></g><path d="M50.7 16.1c-2.5 0-4.5-2-4.5-4.5 0 2.5-2 4.5-4.5 4.5 2.5 0 4.5 2 4.5 4.5 0-2.5 2-4.5 4.5-4.5zm-12.8 3.5c-1.5 0-2.7-1.2-2.7-2.7 0 1.5-1.2 2.7-2.7 2.7 1.5 0 2.7 1.2 2.7 2.7 0-1.4 1.2-2.7 2.7-2.7zM10.7 34.1c-1.5 0-2.7-1.2-2.7-2.8 0 1.5-1.2 2.8-2.7 2.8 1.5 0 2.7 1.2 2.7 2.7 0-1.5 1.2-2.7 2.7-2.7z"/></symbol><symbol id="logoFooterTablet" viewBox="0 0 146.3 40.4"><path d="M71.9 18.7c0-.7.6-1.3 1.3-1.3h7.2c5.1 0 8.4 2.7 8.4 7.1v.1c0 4.9-4.1 7.4-8.9 7.4h-5.5v6.8c0 .7-.6 1.3-1.3 1.3-.7 0-1.3-.6-1.3-1.3l.1-20.1zM80 29.6c3.7 0 6.2-2 6.2-5v-.1c0-3.2-2.4-4.9-6.1-4.9h-5.7v9.9l5.6.1zm13.6-11.1c0-.7.6-1.3 1.3-1.3.7 0 1.3.6 1.3 1.3v20.3c0 .7-.6 1.3-1.3 1.3-.7 0-1.3-.6-1.3-1.3V18.5zm9.1 0c0-.7.6-1.3 1.3-1.3h.4c.6 0 .9.3 1.3.7l13.7 17.4v-17c0-.7.5-1.3 1.3-1.3.7 0 1.2.6 1.2 1.3v20.3c0 .7-.5 1.2-1.2 1.2h-.1c-.5 0-.9-.3-1.3-.8l-14-17.9v17.4c0 .7-.5 1.3-1.3 1.3-.7 0-1.2-.6-1.2-1.3l-.1-20zm25.5 0c0-.7.6-1.3 1.3-1.3.7 0 1.3.6 1.3 1.3v12.3l12.8-13.2c.3-.3.6-.5 1-.5.7 0 1.2.6 1.2 1.3 0 .4-.2.6-.4.9l-8 7.9 8.6 10.6c.2.3.4.5.4.9 0 .7-.6 1.3-1.3 1.3-.5 0-.8-.3-1-.6L135.6 29l-4.9 4.9v4.9c0 .7-.6 1.3-1.3 1.3-.7 0-1.3-.6-1.3-1.3l.1-20.3z"/><path d="M60.5 28L55.3 6.6C54.9 4.3 52.7 0 46.7 0c-.8 0-1.5.7-1.5 1.5S45.9 3 46.7 3c4.9 0 5.6 3.7 5.6 4.1l4.8 19.7H55c-.7-5.9-5.8-10.5-11.9-10.5s-11.2 4.6-11.9 10.5h-1.8c-.7-5.9-5.8-10.5-11.9-10.5s-11.3 4.6-12 10.5H3.4L8.2 7.1C8.3 6.7 9 3 13.8 3c.8 0 1.5-.7 1.5-1.5S14.7 0 13.8 0c-6 0-8.2 4.3-8.6 6.7L0 28.1c-.3 1.1.5 1.8 1.4 1.8h4c.7 5.9 5.8 10.5 11.9 10.5s11.2-4.6 11.9-10.5H31c.7 5.9 5.8 10.5 11.9 10.5S54.3 35.8 55 29.8h4c.9 0 1.7-.7 1.5-1.8zm-34.2 1.8c-.7 4.3-4.4 7.5-8.9 7.5S9.2 34 8.5 29.8c-.1-.5-.1-1-.1-1.5s.1-1 .1-1.5c.7-4.3 4.4-7.5 8.9-7.5s8.2 3.3 8.9 7.5c.1.5.1 1 .1 1.5.1.6 0 1.1-.1 1.5zm25.7 0c-.7 4.3-4.4 7.5-8.9 7.5s-8.2-3.3-8.9-7.5c-.1-.5-.1-1-.1-1.5s.1-1 .1-1.5c.7-4.3 4.4-7.5 8.9-7.5s8.2 3.3 8.9 7.5c.1.5.1 1 .1 1.5 0 .6 0 1.1-.1 1.5z" fill="#D22856"/></symbol><symbol id="twitter" viewBox="0 0 17.5 14.7"><path d="M11.3.2C13-.3 14.4.4 15 1.3c.7-.2 1.4-.5 2.1-.7 0 .8-.5 1.5-.9 1.7.7.2 1.3-.5 1.3-.5-.2 1-1 1.7-1.6 2-.2 6.6-3.3 11-10.4 10.8H5c-.4 0-4.3-.4-5-1.8 2.3.2 4-.4 4.8-1.1-1-.3-2.8-.5-3.1-2.9.4.1.6.2 1.3.1C1.8 8.1.4 7.4.5 5.2c.3.3 1.1.5 1.4.5-.7-.2-2-3.3-.9-4.8 1.9 1.8 3.8 3.5 7.4 3.7C8.5 2.3 9.5.8 11.3.2z" id="W6EeEF_1_"/></symbol><symbol id="youtube" viewBox="0 0 14.6 14"><path d="M1.8 13.8c-1 .5-1.8 0-1.8-1.1V1.3C0 .2.8-.3 1.8.2l12.1 5.9c1 .5 1 1.3 0 1.7l-12.1 6z"/></symbol></svg>