<?xml version="1.0" encoding="utf-8"?>
<!-- Generator: Adobe Illustrator 23.1.0, SVG Export Plug-In . SVG Version: 6.00 Build 0)  -->
<svg version="1.1" id="Слой_1" xmlns="http://www.w3.org/2000/svg" xmlns:xlink="http://www.w3.org/1999/xlink" x="0px" y="0px"
	 viewBox="0 0 612 792" style="enable-background:new 0 0 612 792;" xml:space="preserve">
<style type="text/css">
	.st0{fill:#DDDDDD;}
	.st1{fill:#D22A57;}
</style>
<g>
	<path class="st0" d="M267.5,244.3c20,0,39.9,0,59.9,0c0.3,2.1,2.4,1.9,3.7,2.5c9.7,4.9,12.1,17.7,6.6,25.7c-4,5.9-9.7,8.4-16.8,8.3
		c-6.8-0.1-5.9-1.2-6,6.4c0,1.6,0.8,2.3,2.4,2.6c3.4,0.5,6.9,0.9,10.3,1.7c9.9,2.4,19.5,5.5,28.7,10c9.4,4.5,18.2,9.8,26.3,16.4
		c1,0.9,1.6,0.7,2.5-0.1c1.7-1.7,3.5-3.2,5.3-4.9c3.8-3.6,8.3-5.3,13.6-5.1c6.6,0.2,11.6,5.1,11.8,11.7c0.1,5.6-1.8,10.3-5.7,14.3
		c-1.3,1.3-2.6,2.6-3.9,3.9c-1.1,1.1-1.2,2.2-0.2,3.5c3,4.2,5.9,8.4,8.7,12.7c5.9,8.7,10.1,18.2,13.4,28c3,9,5.5,18.2,6.2,27.8
		c0,0.5,0.9,1,1.4,1.5c0,10.2,0,20.3,0,30.5c-1.4,0.1-1.5,1.1-1.5,2.1c0,1.1,0,2.2-0.2,3.2c-1.5,6.9-2.9,13.8-4.8,20.5
		c-1.6,5.5-3.6,10.8-5.9,16c-1.8,4.1-4.2,7.8-6.3,11.7c-4.6,8.6-10.3,16.4-16.9,23.6c-8.8,9.6-18.4,18.2-29.6,24.9
		c-6.5,3.9-13.1,7.7-20.2,10.3c-6.6,2.4-13.2,4.8-20,6.6c-5.2,1.4-10.7,1.9-16.1,2.8c-0.6,0.1-1.2,0.6-1.7,1c-10,0-20,0-29.9,0
		c-0.5-0.3-0.9-0.9-1.5-1c-6.9-1.3-13.9-2.3-20.7-3.9c-8.7-2.1-16.9-5.5-24.8-9.5c-10.9-5.5-21.1-12.3-30.1-20.6
		c-8.9-8.2-17.1-17-23.4-27.4c-3.8-6.2-7.4-12.5-10.6-19c-2.1-4.3-3.5-9.1-5-13.7c-2.8-8.3-4.8-16.9-5.7-25.6
		c-0.1-0.6-0.6-1.1-1-1.7c0-10.3,0-20.6,0-31c0.3-0.7,0.8-1.3,1-2c0.2-1.2,0.1-2.5,0.4-3.7c1-4.7,2.1-9.3,3.1-14
		c1.7-7.8,4.4-15.2,7.9-22.4c2.6-5.3,5.5-10.3,8.4-15.4c4.8-8.5,10.9-16,17.6-23c9.7-10,20.5-18.6,32.8-25.1
		c5.8-3.1,11.8-6,17.9-8.4c8.3-3.2,16.8-5.4,25.6-6.9c5.9-1,5.9-1.1,5.6-7.2c0-0.1,0-0.2,0-0.2c0-1.3-0.6-2-1.9-2
		c-1.4,0-2.8-0.1-4.2,0c-4.2,0.2-7.9-1-11.5-3.3c-7.6-4.7-9-12.5-7.3-19.8c1.4-5.7,5.3-9.5,10.6-11.8
		C266.4,245.7,266.9,244.9,267.5,244.3z M414.3,425.6c1.3-62.9-52.2-120.5-123.1-117.1c-58.6,2.7-113.8,52.6-110.7,123.1
		c2.6,58.4,52.1,113.8,123,110.8C362.9,539.7,414.9,489.6,414.3,425.6z M305.8,307.6c0-0.1,0-0.1,0-0.2c-5.4,0-10.8,0-16.2,0
		c0,0.1,0,0.1,0,0.2C295,307.6,300.4,307.6,305.8,307.6z"/>
	<path class="st1" d="M414.3,425.6c0.6,64-51.4,114.2-110.8,116.7c-70.9,3.1-120.4-52.4-123-110.8c-3.1-70.5,52.1-120.4,110.7-123.1
		C362.1,305.1,415.5,362.7,414.3,425.6z M399.1,421.6c-0.4-25.2-11.2-50.4-33-70.5c-21.9-20.2-48.1-28.6-77.6-26.4
		c-45.6,3.4-94.2,42.7-92.6,104.9c1.4,52,44.8,99.3,104.4,97.9C353.6,526.2,398.8,482.5,399.1,421.6z"/>
	<path class="st1" d="M264.7,462.4c-8.4,0-16.8,0-25.2,0c-1.8,0-2.7-0.4-2.5-2.4c0-0.1,0-0.2,0-0.2c-1.1-6.5,1.3-11.3,6.3-15.8
		c8.4-7.7,16-16.2,23.8-24.5c3.2-3.4,5.6-7.4,6.2-12.2c1.3-9.5-5.1-12.1-11.7-11.3c-5.2,0.6-9.5,3.3-13.6,6.3
		c-2.2,1.6-2.2,1.6-3.9-0.5c-2-2.4-3.9-4.8-6-7c-1-1.1-1.1-1.8,0.1-2.8c10.1-8.8,21.8-12,34.8-9.1c11.9,2.6,19.1,12.5,16.9,25
		c-1.2,7.1-4.8,12.9-9.6,17.9c-6.5,6.7-13.4,13.1-20.1,19.7c-0.4,0.4-0.9,0.8-1.2,1.2c-0.6,0.8-0.5,1.4,0.6,1.5c0.6,0.1,1.2,0,1.7,0
		c9.5,0,19,0,28.4,0c2.8,0,2.9,0.1,2.9,3c0,2.9-0.1,5.8,0,8.7c0.1,2.1-0.7,2.6-2.6,2.5C281.6,462.4,273.1,462.4,264.7,462.4z"/>
	<path class="st1" d="M348.4,408.1c0,7.3,0,14.6,0,22c0,2.9,0.1,3,2.9,3c1.4,0,2.8,0.1,4.2-0.1c1.6-0.1,2.4,0.4,2.3,2c0,3-0.1,6,0,9
		c0,1.7-0.7,2.2-2.3,2.1c-1.5-0.1-3,0-4.5,0c-2.7,0-2.7,0-2.7,2.8c0,3.7-0.1,7.5,0,11.2c0.1,1.8-0.4,2.5-2.4,2.5c-4-0.1-8-0.1-12,0
		c-1.6,0-2.2-0.5-2.2-2.2c0.1-3.8,0-7.7,0-11.5c0-2.7-0.1-2.8-2.8-2.8c-9.2,0-18.5,0-27.7,0c-3,0-2.8,0-3.1-3
		c-0.5-5.8,0.9-10.8,4.4-15.7c9.9-13.8,19.3-28.1,28.8-42.2c1-1.4,2-2,3.7-1.9c3.6,0.1,7.2,0.1,10.7,0c1.9-0.1,2.4,0.7,2.4,2.5
		C348.3,393.1,348.4,400.6,348.4,408.1z M332,403.6c-0.5,0.7-0.8,1-1.1,1.4c-1.5,2.5-2.9,5-4.5,7.5c-4,6.1-8.1,12.2-12.1,18.3
		c-1.1,1.7-1,2.2,0.7,2.2c5,0.1,10,0,15,0c1.3,0,1.8-0.6,1.8-1.8c0.2-8.6,0.3-17.1,0.5-25.7C332.4,405,332.2,404.5,332,403.6z"/>
</g>
<rect x="287.9" y="306.1" class="st0" width="18.1" height="1.3"/>
<rect x="293.8" y="303.1" class="st0" width="18.1" height="1.3"/>
</svg>
